<?xml version="1.0" standalone="no"?>
<!DOCTYPE svg PUBLIC "-//W3C//DTD SVG 20010904//EN"
 "http://www.w3.org/TR/2001/REC-SVG-20010904/DTD/svg10.dtd">
<svg version="1.0" xmlns="http://www.w3.org/2000/svg"
 width="72.000000pt" height="72.000000pt" viewBox="0 0 72.000000 72.000000"
 preserveAspectRatio="xMidYMid meet">

<g transform="translate(0.000000,72.000000) scale(0.100000,-0.100000)"
fill="#000000" stroke="none">
<path d="M385 600 c-82 -21 -179 -46 -213 -56 l-64 -17 7 -31 c4 -17 10 -119
14 -226 l6 -195 240 0 240 0 0 180 0 180 -183 0 c-100 0 -182 2 -182 5 0 3 79
25 176 50 172 43 175 45 169 68 -3 13 -9 37 -12 53 -7 37 -11 37 -198 -11z
m187 -15 c9 -34 4 -40 -36 -49 -25 -6 -28 -5 -22 11 4 10 10 31 13 46 7 37 34
32 45 -8z m-117 -22 c-8 -46 -12 -51 -53 -59 l-31 -6 12 43 c9 32 19 45 37 50
41 12 42 10 35 -28z m-140 -40 c-8 -44 -11 -48 -47 -57 -23 -5 -28 -3 -28 13
0 33 18 69 37 74 42 11 46 9 38 -30z m-144 -56 c-10 -25 -31 -38 -31 -18 0 5
-3 22 -6 39 -5 26 -3 31 17 34 28 4 35 -15 20 -55z m27 -86 c12 -21 22 -41 22
-45 0 -3 -16 -6 -35 -6 -35 0 -35 0 -35 45 0 57 18 59 48 6z m149 -9 l26 -43
-38 3 c-32 3 -41 9 -62 46 l-26 43 38 -3 c32 -3 41 -9 62 -46z m143 8 c11 -21
20 -42 20 -45 0 -3 -15 -5 -33 -5 -28 0 -37 6 -55 39 -12 21 -22 41 -22 45 0
3 16 6 35 6 30 0 37 -5 55 -40z m110 -7 c-1 -45 -2 -47 -16 -28 -9 11 -22 32
-30 48 -14 27 -14 27 16 27 29 0 30 -1 30 -47z m0 -173 l0 -110 -225 0 -225 0
0 110 0 110 225 0 225 0 0 -110z"/>
</g>
</svg>
